# xmcd
#
# Track frame offsets: 
#        150
#        18189
#        35049
#        49840
#        72971
#        90115
#        113329
#        128297
#        142099
#        154412
#
# Disc length: 2274 seconds
#
# Revision: 0
# Processed by: cddbd v1.5.2PL0 Copyright (c) Steve Scherf et al.
# Submitted via: ExactAudioCopy v1.3
#
DISCID=7708e00a
DTITLE=Black Cat Bone - Drinkin' Alone
DYEAR=2008
DGENRE=Blues Rock
TTITLE0=Glad You're Gone 
TTITLE1=J's Gone 
TTITLE2=Beijing Bounce 
TTITLE3=That Was Then and This Is Now 
TTITLE4=Drinkin' Alone 
TTITLE5=Needle N Spoon 
TTITLE6=Back from Pontiac 
TTITLE7=Till the Night Is Gone 
TTITLE8=Move On Baby 
TTITLE9=Can't be Satisfied 
EXTD=
EXTT0=
EXTT1=
EXTT2=
EXTT3=
EXTT4=
EXTT5=
EXTT6=
EXTT7=
EXTT8=
EXTT9=
PLAYORDER=
